<?xml version="1.0" standalone="no"?><!DOCTYPE svg PUBLIC "-//W3C//DTD SVG 1.1//EN" "http://www.w3.org/Graphics/SVG/1.1/DTD/svg11.dtd"><svg t="1709908411400" class="icon" viewBox="0 0 1024 1024" version="1.1" xmlns="http://www.w3.org/2000/svg" p-id="7588" xmlns:xlink="http://www.w3.org/1999/xlink" width="200" height="200"><path d="M0.192 481.856h481.856V0H0.192z m120.448-361.408H361.6v240.96H120.448zM542.08 0v481.856h482.112V0z m361.408 361.408h-240.896V120.448h240.96zM180.672 301.184h120.32V180.736h-120.32zM0.192 1024h481.856V542.144H0.192z m120.448-361.408H361.6v240.96H120.448z m722.816-481.856h-120.64v120.448h120.448V180.736zM542.08 1024h120.512v-120.448H542.08z m120.448-361.408v240.96h120.448v-240.96z m240.96 240.96h-120.448V1024h241.152v-240.96h-120.704z m0-240.96h120.704V542.144h-120.704zM542.08 542.144v120.448h120.512V542.144z m-361.408 301.12h120.32v-120.448h-120.32z" fill="#7A7B8B" p-id="7589"></path></svg>