<?xml version="1.0" standalone="no"?><!DOCTYPE svg PUBLIC "-//W3C//DTD SVG 1.1//EN" "http://www.w3.org/Graphics/SVG/1.1/DTD/svg11.dtd"><svg t="1709906934645" class="icon" viewBox="0 0 1024 1024" version="1.1" xmlns="http://www.w3.org/2000/svg" p-id="5336" xmlns:xlink="http://www.w3.org/1999/xlink" width="200" height="200"><path d="M534.058667 408.106667c47.658667-47.232 108.970667-68.266667 198.826666-68.266667h4.608v51.2c0 16.384 11.221333 22.485333 24.96 13.653333l123.306667-79.658666c13.781333-8.874667 13.653333-23.210667-0.298667-31.829334L762.752 217.173333c-13.909333-8.618667-25.258667-2.261333-25.258667 14.08v50.986667h-4.608c-104.789333 0-180.864 27.008-239.36 84.992-58.581333 58.112-60.117333 112-61.354666 155.306667-0.512 18.56-0.981333 34.645333-5.589334 49.28-10.453333 32.938667-37.802667 63.445333-77.013333 85.845333-49.322667 28.16-115.882667 42.581333-192.426667 41.770667h-0.384a28.8 28.8 0 0 0-0.298666 57.557333h7.125333c42.453333 0 82.261333-4.266667 118.485333-12.672a356.010667 356.010667 0 0 0 96.085334-36.693333c51.754667-29.610667 88.448-71.68 103.253333-118.442667 7.082667-22.314667 7.68-44.032 8.32-65.024 1.109333-39.808 2.133333-74.197333 44.373333-116.053333z m-376.96-68.266667c96.298667-1.066667 176.810667 22.314667 226.645333 65.877333a28.672 28.672 0 0 0 40.618667-2.730666 28.757333 28.757333 0 0 0-2.730667-40.576C392.661333 337.066667 356.437333 317.354667 313.941333 303.701333c-46.378667-14.848-99.370667-22.058667-157.482666-21.418666a28.8 28.8 0 0 0 0.64 57.6z m728.362666 370.56l-122.709333-75.989333c-13.909333-8.618667-25.258667-2.304-25.258667 14.08v50.986666h-4.608c-80.341333 0-142.037333-24.064-194.133333-75.733333a28.8 28.8 0 0 0-40.533333 40.874667c62.72 62.165333 139.52 92.416 234.666666 92.416h4.608v51.2c0 16.384 11.221333 22.528 24.96 13.653333l123.306667-79.658667c13.781333-8.874667 13.653333-23.210667-0.298667-31.829333z" p-id="5337"></path></svg>